# xmcd CD database file
# Copyright (C) 1993-1998 Ti Kan
# 
# Track frame offsets:
#     183
#     12498
#     25055
#     37863
#     50065
#     63508
#     76120
#     88538
#     100238
#     113320
#     125860
#     137263
#     148678
#     158540
#     171380
#     184195
# 
# Disc length: 2608 seconds
# 
# Revision: 1
# Processed by: cddbd v1.4b41PL1 Copyright (c) Steve Scherf et al.
# Submitted via: DiscPlay 4.0.4
# 
DISCID=c90a2e10
DTITLE=Clarence Gatemouth Brown - San Antonio Ballbuster
DYEAR=1900
DGENRE=
TTITLE0=Gate's Salty Blues
TTITLE1=It Can Never Be That Way
TTITLE2=I've Been Mistreated
TTITLE3=She Winked Her Eye
TTITLE4=Win With Me Baby
TTITLE5=She Walk Right In
TTITLE6=Boogie Uproar
TTITLE7=Baby Take It Easy
TTITLE8=Just Got Lucky
TTITLE9=Didn't Reach My Goal
TTITLE10=You Got Money
TTITLE11=Okie Dokie Stomp
TTITLE12=Just Before Dawn
TTITLE13=Dirty Work At The Crossroads
TTITLE14=Sad Hour
TTITLE15=Rock My Blues Away
EXTD=
EXTT0=
EXTT1=
EXTT2=
EXTT3=
EXTT4=
EXTT5=
EXTT6=
EXTT7=
EXTT8=
EXTT9=
EXTT10=
EXTT11=
EXTT12=
EXTT13=
EXTT14=
EXTT15=
PLAYORDER=
